<?xml version="1.0" encoding="utf-8"?>
<!-- Generator: Adobe Illustrator 24.0.2, SVG Export Plug-In . SVG Version: 6.00 Build 0)  -->
<svg version="1.1" id="Layer_1" xmlns="http://www.w3.org/2000/svg" xmlns:xlink="http://www.w3.org/1999/xlink" x="0px" y="0px"
	 viewBox="0 0 55 17" style="enable-background:new 0 0 55 17;" xml:space="preserve">
<style type="text/css">
	.st0{stroke:#000000;stroke-miterlimit:10;}
	.st1{opacity:0.49;fill:#0000FF;stroke:#000000;stroke-width:0.25;stroke-miterlimit:10;}
</style>
<g>
	<path class="st0" d="M2.42,10.69c0.47,0.29,1.15,0.53,1.87,0.53c1.07,0,1.69-0.56,1.69-1.38c0-0.76-0.43-1.19-1.52-1.61
		C3.14,7.76,2.32,7.08,2.32,5.94c0-1.26,1.04-2.19,2.61-2.19c0.83,0,1.43,0.19,1.79,0.4L6.44,4.99C6.17,4.84,5.63,4.6,4.9,4.6
		c-1.1,0-1.52,0.66-1.52,1.21c0,0.76,0.49,1.13,1.61,1.56C6.35,7.9,7.05,8.56,7.05,9.75c0,1.25-0.92,2.33-2.83,2.33
		c-0.78,0-1.63-0.23-2.06-0.52L2.42,10.69z"/>
	<path class="st0" d="M9.52,3.87v8.08H8.48V3.87H9.52z"/>
	<path class="st0" d="M12.88,4.76h-2.46V3.87h5.98v0.89h-2.47v7.2h-1.06V4.76z"/>
	<path class="st0" d="M21.5,8.17h-3.14v2.91h3.5v0.88h-4.55V3.87h4.37v0.88h-3.32V7.3h3.14V8.17z"/>
	<path class="st0" d="M25.76,3.87h1.04v7.21h3.45v0.88h-4.5V3.87z"/>
	<path class="st0" d="M37.86,7.83c0,2.78-1.69,4.26-3.75,4.26c-2.13,0-3.63-1.65-3.63-4.1c0-2.57,1.6-4.25,3.75-4.25
		C36.44,3.74,37.86,5.43,37.86,7.83z M31.59,7.96c0,1.73,0.94,3.27,2.58,3.27c1.65,0,2.59-1.52,2.59-3.36
		c0-1.61-0.84-3.29-2.58-3.29C32.45,4.59,31.59,6.19,31.59,7.96z"/>
	<path class="st0" d="M45.38,11.6c-0.47,0.17-1.39,0.44-2.48,0.44c-1.22,0-2.23-0.31-3.02-1.07c-0.7-0.67-1.13-1.75-1.13-3.01
		c0.01-2.41,1.67-4.17,4.38-4.17c0.94,0,1.67,0.2,2.01,0.37l-0.25,0.85c-0.43-0.19-0.97-0.35-1.79-0.35c-1.97,0-3.25,1.22-3.25,3.25
		c0,2.05,1.24,3.26,3.12,3.26c0.68,0,1.15-0.1,1.39-0.22V8.55h-1.64V7.71h2.66V11.6z"/>
	<path class="st0" d="M53.88,7.83c0,2.78-1.69,4.26-3.75,4.26c-2.13,0-3.63-1.65-3.63-4.1c0-2.57,1.6-4.25,3.75-4.25
		C52.46,3.74,53.88,5.43,53.88,7.83z M47.61,7.96c0,1.73,0.94,3.27,2.58,3.27c1.66,0,2.59-1.52,2.59-3.36
		c0-1.61-0.84-3.29-2.58-3.29C48.47,4.59,47.61,6.19,47.61,7.96z"/>
</g>
<rect x="1" y="1" class="st1" width="54" height="14"/>
</svg>
